<svg xmlns="http://www.w3.org/2000/svg" version="1.1" xmlns:xlink="http://www.w3.org/1999/xlink" xmlns:svgjs="http://svgjs.dev/svgjs" width="2000" height="621" viewBox="0 0 2000 621"><g transform="matrix(1,0,0,1,-1.2121212121212466,1.1447147301565224)"><svg viewBox="0 0 396 123" data-background-color="#ffffff" preserveAspectRatio="xMidYMid meet" height="621" width="2000" xmlns="http://www.w3.org/2000/svg" xmlns:xlink="http://www.w3.org/1999/xlink"><g id="tight-bounds" transform="matrix(1,0,0,1,0.2400000000000091,-0.2267309368909025)"><svg viewBox="0 0 395.52 123.4534618737818" height="123.4534618737818" width="395.52"><g><svg viewBox="0 0 775.3673187972951 242.0150175195143" height="123.4534618737818" width="395.52"><g><rect width="21.716581133739187" height="242.0150175195143" x="301.2810488317779" y="0" fill="#f7d65a" opacity="1" stroke-width="0" stroke="transparent" fill-opacity="1" class="rect-qz-0" data-fill-palette-color="primary" rx="1%" id="qz-0" data-palette-color="#f7d65a"></rect></g><g transform="matrix(1,0,0,1,379.8473187972951,0.6020274067649467)"><svg viewBox="0 0 395.52 240.8109627059844" height="240.8109627059844" width="395.52"><g id="textblocktransform"><svg viewBox="0 0 395.52 240.8109627059844" height="240.8109627059844" width="395.52" id="textblock"><g><svg viewBox="0 0 395.52 240.8109627059844" height="240.8109627059844" width="395.52"><g transform="matrix(1,0,0,1,0,0)"><svg width="395.52" viewBox="2 -34.3 57.65 35.099999999999994" height="240.8109627059844" data-palette-color="#f7d65a"><g class="wordmark-text-0" data-fill-palette-color="primary" id="text-0"><path d="M12.5-34.3Q13.95-34.3 14.7-33.9 15.45-33.5 15.45-32.85L15.45-32.85Q16.4-33 17.13-33.05 17.85-33.1 18.75-33.1L18.75-33.1Q22.35-33.1 24.83-31.35 27.3-29.6 28.53-26.75 29.75-23.9 29.75-20.6L29.75-20.6Q29.75-19.75 29.7-19.35L29.7-19.35Q29.25-13.35 26.7-8.78 24.15-4.2 19.98-1.7 15.8 0.8 10.6 0.8L10.6 0.8Q9.15 0.8 7.05 0.45L7.05 0.45Q6.25 0.3 5.18-0.63 4.1-1.55 3.35-2.75 2.6-3.95 2.6-4.9L2.6-4.9Q2.6-5.45 2.75-5.95L2.75-5.95 8-26.2Q5.15-25.35 3.2-24L3.2-24Q2.6-24.6 2.3-25.5 2-26.4 2-27.35L2-27.35Q2-28.45 2.9-29.3L2.9-29.3Q5.25-30.8 9.4-31.85L9.4-31.85Q10.35-34.3 12.5-34.3L12.5-34.3ZM9-4.75Q10.2-4.45 11.6-4.45L11.6-4.45Q15.1-4.45 17.6-6.38 20.1-8.3 21.53-11.25 22.95-14.2 23.4-17.35L23.4-17.35Q23.6-18.6 23.6-20.15L23.6-20.15Q23.6-23.65 22.05-25.68 20.5-27.7 17.25-27.7L17.25-27.7Q15.85-27.7 14.7-27.5L14.7-27.5Q13.8-23.6 10.9-12.25L10.9-12.25Q9.35-6.15 9-4.75L9-4.75ZM32.4-27.5Q32.4-28.2 32.82-28.63 33.25-29.05 34-29.4L34-29.4Q34.25-29.55 35.82-30.3 37.4-31.05 38.85-31.45L38.85-31.45Q39.3-32.45 40.22-33.1 41.15-33.75 42.6-33.75L42.6-33.75Q43.45-33.75 44-33.43 44.55-33.1 44.75-32.6L44.75-32.6Q46.6-33.2 49.2-33.2L49.2-33.2Q52.45-33.2 54.82-31.83 57.2-30.45 58.42-28.05 59.65-25.65 59.65-22.65L59.65-22.65Q59.65-22.05 59.5-21L59.5-21Q57.45-9.3 42-9.3L42-9.3Q40.6-9.3 39.95-9.35L39.95-9.35 39.3-6.95Q38.25-3.1 38.25-3L38.25-3Q37.85-1.25 37.02-0.3 36.2 0.65 34.35 0.65L34.35 0.65Q32.8 0.65 32.07 0.13 31.35-0.4 31.35-1.65L31.35-1.65Q31.35-2.2 31.5-2.7L31.5-2.7 37.55-26.05Q34.95-25.3 33.6-24L33.6-24Q33.05-24.6 32.72-25.58 32.4-26.55 32.4-27.5L32.4-27.5ZM41-14Q41.6-13.95 42.7-13.95L42.7-13.95Q47.45-13.95 50.22-15.75 53-17.55 53.8-21.3L53.8-21.3Q53.95-22.15 53.95-22.55L53.95-22.55Q53.95-25.35 52.4-26.73 50.85-28.1 48.05-28.1L48.05-28.1Q46.55-28.1 44.2-27.4L44.2-27.4Q42.25-19.65 41-14L41-14Z" fill="#f7d65a" data-fill-palette-color="primary"></path></g></svg></g></svg></g></svg></g></svg></g><g transform="matrix(1,0,0,1,0,25.619914926956795)"><svg viewBox="0 0 244.43135999999996 190.7751876656007" height="190.7751876656007" width="244.43135999999996"><g><svg xmlns="http://www.w3.org/2000/svg" xmlns:xlink="http://www.w3.org/1999/xlink" version="1.1" x="0" y="0" viewBox="5.599999999999992 14.8 88.69999999999999 69.22908396835325" enable-background="new 0 0 100 100" xml:space="preserve" height="190.7751876656007" width="244.43135999999996" class="icon-icon-0" data-fill-palette-color="accent" id="icon-0"><g fill="#f7d65a" data-fill-palette-color="accent"><path d="M50.2 84c-6.7 0-13.4 0-20.1 0-0.2 0-0.4 0-0.7 0-0.5-0.1-1.4 0.4-1.4-0.7 0-0.9 0.8-0.6 1.3-0.6 0.6-0.1 1.2 0 1.8 0 3.9 0 5.7-1.3 6.9-5 0.3-0.8 0.5-1.7 0.5-2.6 0-0.8 0.4-1.2 1.2-1.2 7.2 0 14.5 0 21.7 0 0.7 0 1 0.3 1.1 0.9 0.3 1.7 0.6 3.3 1.5 4.9 1 1.9 2.6 2.8 4.7 2.9 1 0 1.9 0 2.9 0 0.5 0 0.9 0 0.9 0.7 0 0.6-0.4 0.7-0.9 0.7-0.8 0-1.6 0-2.4 0C62.9 84 56.6 84 50.2 84z" fill="#f7d65a" data-fill-palette-color="accent"></path><path d="M49.9 14.8c13.9 0 27.9 0 41.8 0 2 0 2.6 0.6 2.6 2.6 0 17.5 0 35 0 52.5 0 2.2-0.6 2.8-2.8 2.8-27.7 0-55.4 0-83.1 0-2.2 0-2.8-0.6-2.8-2.8 0-17.5 0-35 0-52.5 0-2.2 0.4-2.6 2.6-2.6C22.1 14.8 36 14.8 49.9 14.8zM49.7 19c-12.9 0-25.9 0-38.8 0-1.2 0-1.6 0.3-1.6 1.6 0 13.3 0 26.6 0 39.9 0 1.3 0.4 1.6 1.6 1.6 25.8 0 51.6 0 77.3 0 1.2 0 1.6-0.3 1.6-1.6 0-13.3 0-26.6 0-39.9 0-1.3-0.4-1.6-1.6-1.6C75.4 19 62.5 19 49.7 19z" fill="#f7d65a" data-fill-palette-color="accent"></path><path d="M46.3 53.5c-2.4 0-2.4 0-1.8-2.4 2.1-7.3 4.2-14.5 6.3-21.8 0.3-1 0.6-1.4 1.8-1.4C56 28 56 28 55 31.3c-2 6.7-3.9 13.4-5.9 20.1C48.5 53.5 48.5 53.5 46.3 53.5z" fill="#f7d65a" data-fill-palette-color="accent"></path><path d="M34.7 41c2.3 0.9 4.5 1.9 6.8 2.7 1.1 0.4 1.6 0.9 1.5 2.1-0.1 2.6 0 2.6-2.4 1.6-3.4-1.4-6.8-2.8-10.2-4.2-1.9-0.8-1.9-0.8-1.9-2.8 0-0.7 0.2-1.1 0.9-1.4 4.2-1.7 8.4-3.5 12.6-5.2 0.7-0.3 0.9-0.2 1 0.6 0.2 3 0.2 3-2.5 4.1-1.9 0.7-3.7 1.5-5.6 2.3C34.8 40.7 34.8 40.8 34.7 41z" fill="#f7d65a" data-fill-palette-color="accent"></path><path d="M65.3 40.9c-2.1-0.9-4-1.7-5.8-2.4-0.1 0-0.2 0-0.3-0.1-2.2-0.9-2.8-2-2.3-4.4 0.2-0.8 0.5-0.4 0.9-0.2 2.5 1 5 2.1 7.5 3.1 1.6 0.7 3.2 1.4 4.8 2 1.2 0.4 0.9 1.4 1 2.2 0.1 0.8-0.1 1.3-1 1.7-4 1.6-7.9 3.3-11.9 4.9-1.3 0.6-1.2 0.5-1.4-0.9-0.2-1.8 0.3-2.9 2.2-3.4C61.1 42.8 63 41.9 65.3 40.9z" fill="#f7d65a" data-fill-palette-color="accent"></path></g></svg></g></svg></g></svg></g><defs></defs></svg><rect width="395.52" height="123.4534618737818" fill="none" stroke="none" visibility="hidden"></rect></g></svg></g></svg>